# xmcd
#
# Track frame offsets: 
#        150
#        11796
#        24273
#        35034
#        45439
#        54312
#        67748
#        77956
#        88102
#        99522
#        110178
#        120620
#        127967
#        136253
#        146374
#        155959
#        168116
#        179824
#        190921
#        202108
#        214115
#        224124
#        233600
#        243920
#        253689
#        265305
#        276002
#        286523
#        297540
#
# Disc length: 4130 seconds
#
# Revision: 0
# Processed by: cddbd v1.5.2PL0 Copyright (c) Steve Scherf et al.
# Submitted via: ExactAudioCopy v0.95b4
#
DISCID=b510201d
DTITLE=Various Artist - Hillbilly Hop
DYEAR=1900
DGENRE=Hillbilly
TTITLE0=Jackie Lowell - Rocket Trip
TTITLE1=Nolan Cormier - Hee-Haw Breakdown
TTITLE2=Joe Maphis - The Rockin' Gypsy
TTITLE3=Rusty and Doug - Hey Mae
TTITLE4=Betty Johnson - Honky Tonk Rock
TTITLE5=Buck Griffin - Stutterin' Papa
TTITLE6=Dick Stratton - Pistol Boogie
TTITLE7=Wiley Barkdull - I Ain't Gonna Waste My Time
TTITLE8=Onie Wheeler - Onie's Bop
TTITLE9=Wade Ray - Idaho Red
TTITLE10=Sammy Masters - Rockin' Red Wing
TTITLE11=Carl Phillips - Salty Dog Blues
TTITLE12=Merle Ray - I Won't Be Back Tonight
TTITLE13=Charlie Gore - Somebody's Been
TTITLE14=Al Terry - Watchdog
TTITLE15=The Louvin Brothers - Cash on The Barrelhead
TTITLE16=The Davis Sisters - Rock-A-Bye Boogie
TTITLE17=Lee Bell - Beatin' Out The Boogie
TTITLE18=Jack Guthrie - Oakie Boogie
TTITLE19=The Louvin Brothers - Red Hen Hop
TTITLE20=Jerry Jericho When I'm Gone
TTITLE21=Paul Davis - Big Money
TTITLE22=Charlie Gore - Oh' Miserable Love
TTITLE23=Neal Graham - Stop Your Teasing Me
TTITLE24=Leon Bass - Country Hix's
TTITLE25=Doug Harden - Dig That Ford
TTITLE26=Little Jimmy Dickens - Salty Boogie
TTITLE27=Chuck Bowers - Pig Pen Boogie
TTITLE28=Eddie Cletro - Flyin' Saucer Boogie
EXTD=
EXTT0=
EXTT1=
EXTT2=
EXTT3=
EXTT4=
EXTT5=
EXTT6=
EXTT7=
EXTT8=
EXTT9=
EXTT10=
EXTT11=
EXTT12=
EXTT13=
EXTT14=
EXTT15=
EXTT16=
EXTT17=
EXTT18=
EXTT19=
EXTT20=
EXTT21=
EXTT22=
EXTT23=
EXTT24=
EXTT25=
EXTT26=
EXTT27=
EXTT28=
PLAYORDER=
